<svg xmlns="http://www.w3.org/2000/svg" xmlns:xlink="http://www.w3.org/1999/xlink" viewBox="0 0 87.9 73.36"><defs><style>.cls-1{isolation:isolate;}.cls-2{fill:url(#linear-gradient);}.cls-3{fill:url(#linear-gradient-2);}.cls-4{fill:url(#linear-gradient-3);}.cls-5{fill:#fff;opacity:0.2;mix-blend-mode:overlay;}.cls-6{fill:#c6c6c6;}.cls-7{fill:#9d9d9c;}.cls-8{fill:#3cb3e7;}.cls-9{fill:#95d5f4;}</style><linearGradient id="linear-gradient" x1="27.15" y1="12.87" x2="48.47" y2="25.18" gradientUnits="userSpaceOnUse"><stop offset="0" stop-color="#1f3b71"/><stop offset="0.1" stop-color="#204177"/><stop offset="0.23" stop-color="#245289"/><stop offset="0.38" stop-color="#2a6ea5"/><stop offset="0.54" stop-color="#3295cd"/><stop offset="0.62" stop-color="#36a9e1"/><stop offset="0.74" stop-color="#2688be"/><stop offset="0.82" stop-color="#236ca2"/><stop offset="0.94" stop-color="#20497f"/><stop offset="1" stop-color="#1f3b71"/></linearGradient><linearGradient id="linear-gradient-2" x1="26.04" y1="25.17" x2="56.13" y2="7.8" gradientUnits="userSpaceOnUse"><stop offset="0" stop-color="#36a9e1"/><stop offset="0.01" stop-color="#36a9e1"/><stop offset="0.28" stop-color="#36a9e1"/><stop offset="0.67" stop-color="#1f3b71"/><stop offset="0.89" stop-color="#1f3b71"/><stop offset="1" stop-color="#1f3b71"/></linearGradient><linearGradient id="linear-gradient-3" x1="31.15" y1="17.91" x2="60.51" y2="17.91" gradientUnits="userSpaceOnUse"><stop offset="0" stop-color="#1f3b71"/><stop offset="0.25" stop-color="#1f3b71"/><stop offset="0.34" stop-color="#23467c"/><stop offset="0.5" stop-color="#2d6498"/><stop offset="0.71" stop-color="#3d95c5"/><stop offset="0.89" stop-color="#4cc2ef"/><stop offset="1" stop-color="#3cb3e7"/></linearGradient></defs><title>logo</title><g class="cls-1"><g id="Layer_2" data-name="Layer 2"><g id="Calque_1" data-name="Calque 1"><path class="cls-2" d="M36.53,17.4c-.18-4,3.71-9.69,6.23-12.4a15.14,15.14,0,1,0-2.23,30.12c4.37,0,4.88-7.3,7.65-10.26A8.22,8.22,0,0,1,36.53,17.4Z"/><path class="cls-3" d="M40.29,15.21c6.43,0,13.25,6.88,10.76,13.91,1.53-2.64,7.61-7.94,7.61-11.21C58.67,8,52.49,0,42.6,0A17.91,17.91,0,0,0,24.68,17.91a19,19,0,0,0,3.37,10.61C27.25,21.66,32.28,15.21,40.29,15.21Z"/><path class="cls-4" d="M42.6,0A17.84,17.84,0,0,0,31.15,4.14C40-.32,48.38,10.39,48.38,18.76S43.47,33.9,35.1,33.9l-.62,0A17.91,17.91,0,1,0,42.6,0Z"/><path class="cls-5" d="M28.28,7.07c4.56,9.54,5.55,19.07,2.93,24.88-1.78-1.19-6.53-6.33-6.53-14.12A18.69,18.69,0,0,1,28.28,7.07Z"/><path class="cls-6" d="M4.43,70.3a1.54,1.54,0,0,1,.28-.52,1.36,1.36,0,0,1,.46-.36,1.46,1.46,0,0,1,.64-.13,1.46,1.46,0,0,1,.64.13,1.36,1.36,0,0,1,.46.36,1.52,1.52,0,0,1,.28.52,2.06,2.06,0,0,1,0,1.22,1.52,1.52,0,0,1-.28.52,1.33,1.33,0,0,1-.46.36,1.47,1.47,0,0,1-.64.13,1.48,1.48,0,0,1-.64-.13A1.33,1.33,0,0,1,4.71,72a1.55,1.55,0,0,1-.28-.52,2,2,0,0,1,0-1.22Zm.38,1.07a1.24,1.24,0,0,0,.19.41,1,1,0,0,0,.33.29,1.12,1.12,0,0,0,1,0,1,1,0,0,0,.33-.29,1.26,1.26,0,0,0,.19-.41,1.76,1.76,0,0,0,0-.92A1.25,1.25,0,0,0,6.64,70a1,1,0,0,0-.33-.29,1.12,1.12,0,0,0-1,0A1,1,0,0,0,5,70a1.24,1.24,0,0,0-.19.41,1.78,1.78,0,0,0,0,.92Z"/><path class="cls-6" d="M8.56,70.21v.3h0a.55.55,0,0,1,.29-.27,1.07,1.07,0,0,1,.43-.08,1,1,0,0,1,.45.1.91.91,0,0,1,.32.26,1.14,1.14,0,0,1,.19.37,1.55,1.55,0,0,1,.07.45,1.63,1.63,0,0,1-.06.45,1.08,1.08,0,0,1-.19.37.9.9,0,0,1-.32.25,1,1,0,0,1-.45.09l-.18,0-.2-.06a.8.8,0,0,1-.19-.11.58.58,0,0,1-.15-.17h0v1.15H8.19V70.21ZM9.88,71a.86.86,0,0,0-.13-.27.64.64,0,0,0-.22-.19.66.66,0,0,0-.31-.07.63.63,0,0,0-.32.07.63.63,0,0,0-.21.19.83.83,0,0,0-.12.27,1.28,1.28,0,0,0,0,.63.78.78,0,0,0,.12.27.63.63,0,0,0,.22.19.68.68,0,0,0,.33.07.63.63,0,0,0,.32-.07.58.58,0,0,0,.21-.19.86.86,0,0,0,.11-.28,1.42,1.42,0,0,0,0-.32A1.14,1.14,0,0,0,9.88,71Z"/><path class="cls-6" d="M12.76,72.31a1,1,0,0,1-.63.19,1.17,1.17,0,0,1-.47-.09.92.92,0,0,1-.33-.24,1,1,0,0,1-.2-.37,1.88,1.88,0,0,1-.08-.47,1.37,1.37,0,0,1,.08-.47,1.14,1.14,0,0,1,.22-.37,1,1,0,0,1,.33-.24,1,1,0,0,1,.42-.09.92.92,0,0,1,.5.12,1,1,0,0,1,.32.31,1.21,1.21,0,0,1,.16.42,1.76,1.76,0,0,1,0,.43H11.45a.88.88,0,0,0,0,.28.63.63,0,0,0,.13.23.61.61,0,0,0,.22.16.77.77,0,0,0,.32.06.64.64,0,0,0,.38-.11.53.53,0,0,0,.2-.33h.36A.9.9,0,0,1,12.76,72.31Zm-.09-1.44a.64.64,0,0,0-.13-.2.63.63,0,0,0-.2-.13.62.62,0,0,0-.25-.05.64.64,0,0,0-.26.05.6.6,0,0,0-.2.14.69.69,0,0,0-.13.2.77.77,0,0,0-.06.25h1.29A.73.73,0,0,0,12.67,70.87Z"/><path class="cls-6" d="M14.28,70.21v.35h0a.78.78,0,0,1,.73-.41,1,1,0,0,1,.37.06.62.62,0,0,1,.24.17.64.64,0,0,1,.13.26,1.38,1.38,0,0,1,0,.33v1.47h-.37V70.94a.42.42,0,0,0-.45-.45.76.76,0,0,0-.29.05.55.55,0,0,0-.21.15.63.63,0,0,0-.12.22.9.9,0,0,0,0,.28v1.26h-.37V70.21Z"/><path class="cls-6" d="M20,69.78a.87.87,0,0,0-.53-.15l-.26,0a.7.7,0,0,0-.22.09.45.45,0,0,0-.16.16.49.49,0,0,0-.06.25.32.32,0,0,0,.08.23.62.62,0,0,0,.23.14,1.9,1.9,0,0,0,.32.09l.36.08.36.1a1.18,1.18,0,0,1,.32.16.75.75,0,0,1,.23.25.88.88,0,0,1,0,.8.91.91,0,0,1-.28.29,1.24,1.24,0,0,1-.39.16,1.89,1.89,0,0,1-.43,0,1.8,1.8,0,0,1-.49-.07,1.21,1.21,0,0,1-.41-.2.94.94,0,0,1-.28-.34,1.1,1.1,0,0,1-.1-.49h.39A.68.68,0,0,0,19,72a.84.84,0,0,0,.29.13,1.32,1.32,0,0,0,.34,0l.28,0a.84.84,0,0,0,.25-.09.48.48,0,0,0,.25-.45.39.39,0,0,0-.08-.26.62.62,0,0,0-.23-.16,1.66,1.66,0,0,0-.32-.1L19.38,71l-.36-.1a1.3,1.3,0,0,1-.32-.14.66.66,0,0,1-.23-.23.68.68,0,0,1-.08-.35.82.82,0,0,1,.09-.4.84.84,0,0,1,.25-.28,1.15,1.15,0,0,1,.36-.16,1.59,1.59,0,0,1,.41-.05,1.65,1.65,0,0,1,.44.06,1,1,0,0,1,.36.18.86.86,0,0,1,.24.31,1.1,1.1,0,0,1,.1.44h-.39A.64.64,0,0,0,20,69.78Z"/><path class="cls-6" d="M21.6,70.87a1,1,0,0,1,.21-.37,1,1,0,0,1,.34-.25,1.26,1.26,0,0,1,.94,0,1,1,0,0,1,.34.25,1,1,0,0,1,.21.37,1.52,1.52,0,0,1,.07.46,1.49,1.49,0,0,1-.07.46,1,1,0,0,1-.21.37,1,1,0,0,1-.34.25,1.29,1.29,0,0,1-.94,0,1,1,0,0,1-.34-.25,1.05,1.05,0,0,1-.21-.37,1.46,1.46,0,0,1-.07-.46A1.49,1.49,0,0,1,21.6,70.87Zm.37.82a.77.77,0,0,0,.15.26.67.67,0,0,0,.22.16.66.66,0,0,0,.76-.16.75.75,0,0,0,.15-.26,1.23,1.23,0,0,0,0-.72.77.77,0,0,0-.15-.27.64.64,0,0,0-.22-.16.67.67,0,0,0-.54,0,.66.66,0,0,0-.22.16A.79.79,0,0,0,22,71a1.24,1.24,0,0,0,0,.72Z"/><path class="cls-6" d="M26.08,72.45V72.1h0a.76.76,0,0,1-.3.31.9.9,0,0,1-.43.1,1,1,0,0,1-.37-.06.59.59,0,0,1-.24-.17.62.62,0,0,1-.13-.26,1.39,1.39,0,0,1,0-.33V70.21h.37v1.52a.44.44,0,0,0,.12.33.45.45,0,0,0,.33.12.75.75,0,0,0,.29-.05.54.54,0,0,0,.21-.15.65.65,0,0,0,.12-.22.92.92,0,0,0,0-.28V70.21h.37v2.24Z"/><path class="cls-6" d="M27.74,70.21v.47h0a1,1,0,0,1,.33-.4.82.82,0,0,1,.49-.12v.39a1,1,0,0,0-.38.06.59.59,0,0,0-.25.18.75.75,0,0,0-.14.28,1.53,1.53,0,0,0,0,.38v1H27.4V70.21Z"/><path class="cls-6" d="M30.55,70.6a.56.56,0,0,0-.37-.12.69.69,0,0,0-.33.07.6.6,0,0,0-.21.19.82.82,0,0,0-.11.28,1.5,1.5,0,0,0,0,.33,1.23,1.23,0,0,0,0,.3.82.82,0,0,0,.11.26.59.59,0,0,0,.2.18.61.61,0,0,0,.3.07.6.6,0,0,0,.43-.14.64.64,0,0,0,.19-.4h.38a1,1,0,0,1-.31.64,1,1,0,0,1-.68.23,1.17,1.17,0,0,1-.45-.08.88.88,0,0,1-.33-.23,1,1,0,0,1-.2-.36,1.5,1.5,0,0,1-.07-.46,1.66,1.66,0,0,1,.07-.47,1.08,1.08,0,0,1,.2-.38.93.93,0,0,1,.33-.26,1.08,1.08,0,0,1,.46-.09,1.35,1.35,0,0,1,.36,0,.86.86,0,0,1,.29.14.76.76,0,0,1,.21.24.9.9,0,0,1,.1.34h-.38A.56.56,0,0,0,30.55,70.6Z"/><path class="cls-6" d="M33.55,72.31a1,1,0,0,1-.63.19,1.16,1.16,0,0,1-.47-.09.92.92,0,0,1-.33-.24,1,1,0,0,1-.2-.37,1.8,1.8,0,0,1-.08-.47,1.34,1.34,0,0,1,.08-.47,1.12,1.12,0,0,1,.22-.37,1,1,0,0,1,.33-.24,1,1,0,0,1,.42-.09.92.92,0,0,1,.5.12,1,1,0,0,1,.32.31,1.25,1.25,0,0,1,.16.42,1.85,1.85,0,0,1,0,.43H32.23a.84.84,0,0,0,0,.28.63.63,0,0,0,.12.23.61.61,0,0,0,.22.16.77.77,0,0,0,.32.06.64.64,0,0,0,.38-.11.52.52,0,0,0,.2-.33h.36A.9.9,0,0,1,33.55,72.31Zm-.09-1.44a.62.62,0,0,0-.33-.34.63.63,0,0,0-.25-.05.64.64,0,0,0-.26.05.6.6,0,0,0-.2.14.67.67,0,0,0-.13.2.8.8,0,0,0-.06.25h1.29A.76.76,0,0,0,33.46,70.87Z"/><path class="cls-7" d="M37.94,72.31a1,1,0,0,1-.63.19,1.16,1.16,0,0,1-.47-.09.93.93,0,0,1-.33-.24,1,1,0,0,1-.2-.37,1.84,1.84,0,0,1-.08-.47,1.37,1.37,0,0,1,.08-.47,1.13,1.13,0,0,1,.22-.37,1,1,0,0,1,.33-.24,1,1,0,0,1,.42-.09.92.92,0,0,1,.5.12,1,1,0,0,1,.32.31,1.23,1.23,0,0,1,.16.42,1.81,1.81,0,0,1,0,.43H36.63a.86.86,0,0,0,0,.28.6.6,0,0,0,.13.23.62.62,0,0,0,.22.16.77.77,0,0,0,.32.06.64.64,0,0,0,.38-.11.51.51,0,0,0,.2-.33h.37A.9.9,0,0,1,37.94,72.31Zm-.09-1.44a.63.63,0,0,0-.59-.39.64.64,0,0,0-.26.05.59.59,0,0,0-.2.14.68.68,0,0,0-.13.2.73.73,0,0,0-.06.25h1.29A.76.76,0,0,0,37.86,70.87Z"/><path class="cls-7" d="M40.31,71.07v.35H39.06v-.35Z"/><path class="cls-7" d="M41.63,69.36v3.09h-.37V69.36Z"/><path class="cls-7" d="M44.21,72.31a1,1,0,0,1-.63.19,1.16,1.16,0,0,1-.47-.09.92.92,0,0,1-.33-.24,1,1,0,0,1-.2-.37,1.77,1.77,0,0,1-.08-.47,1.35,1.35,0,0,1,.08-.47,1.14,1.14,0,0,1,.22-.37,1,1,0,0,1,.33-.24,1,1,0,0,1,.42-.09.92.92,0,0,1,.5.12,1,1,0,0,1,.32.31,1.27,1.27,0,0,1,.16.42,1.72,1.72,0,0,1,0,.43H42.9a.88.88,0,0,0,0,.28.61.61,0,0,0,.35.4.76.76,0,0,0,.32.06.64.64,0,0,0,.38-.11.52.52,0,0,0,.2-.33h.36A.89.89,0,0,1,44.21,72.31Zm-.09-1.44a.62.62,0,0,0-.13-.2.64.64,0,0,0-.2-.13.63.63,0,0,0-.25-.05.65.65,0,0,0-.26.05.61.61,0,0,0-.2.14.67.67,0,0,0-.13.2.76.76,0,0,0-.06.25h1.29A.73.73,0,0,0,44.13,70.87Z"/><path class="cls-7" d="M47.11,72.5a.32.32,0,0,1-.23-.08.35.35,0,0,1-.08-.26.88.88,0,0,1-.35.26,1.17,1.17,0,0,1-.44.08,1.23,1.23,0,0,1-.29,0,.66.66,0,0,1-.24-.11.55.55,0,0,1-.16-.19.76.76,0,0,1,0-.6.56.56,0,0,1,.17-.2.76.76,0,0,1,.24-.11l.28-.07.29,0,.24,0a.39.39,0,0,0,.16-.08.2.2,0,0,0,.06-.16.37.37,0,0,0,0-.19.32.32,0,0,0-.12-.11.46.46,0,0,0-.16-.05h-.18a.77.77,0,0,0-.39.09.38.38,0,0,0-.17.34h-.37a.79.79,0,0,1,.09-.35.67.67,0,0,1,.21-.23.86.86,0,0,1,.3-.13,1.54,1.54,0,0,1,.35,0l.3,0a.78.78,0,0,1,.27.09.51.51,0,0,1,.2.19.6.6,0,0,1,.07.32v1.15a.79.79,0,0,0,0,.19s0,.06.1.06l.11,0v.29A.53.53,0,0,1,47.11,72.5Zm-.51-1.13-.24,0-.25,0a.92.92,0,0,0-.23.06.41.41,0,0,0-.16.12.34.34,0,0,0-.06.22.29.29,0,0,0,0,.15.31.31,0,0,0,.1.1.39.39,0,0,0,.14.06l.16,0a.87.87,0,0,0,.31,0,.65.65,0,0,0,.21-.13.49.49,0,0,0,.12-.16.41.41,0,0,0,0-.17V71.3A.46.46,0,0,1,46.59,71.37Z"/><path class="cls-7" d="M48.48,70.21v.47h0a1,1,0,0,1,.33-.4.83.83,0,0,1,.49-.12v.39a1,1,0,0,0-.38.06.59.59,0,0,0-.25.18.73.73,0,0,0-.14.28,1.56,1.56,0,0,0,0,.38v1h-.37V70.21Z"/><path class="cls-7" d="M50.45,70.21v.35h0a.78.78,0,0,1,.73-.41,1,1,0,0,1,.37.06.6.6,0,0,1,.24.17.64.64,0,0,1,.13.26A1.39,1.39,0,0,1,52,71v1.47h-.37V70.94a.42.42,0,0,0-.45-.45.75.75,0,0,0-.29.05.55.55,0,0,0-.21.15.63.63,0,0,0-.12.22.87.87,0,0,0,0,.28v1.26H50.1V70.21Z"/><path class="cls-7" d="M53,69.81v-.45h.37v.45Zm.37.4v2.24H53V70.21Z"/><path class="cls-7" d="M54.68,70.21v.35h0a.78.78,0,0,1,.73-.41,1,1,0,0,1,.37.06.61.61,0,0,1,.24.17.62.62,0,0,1,.13.26,1.39,1.39,0,0,1,0,.33v1.47h-.37V70.94a.44.44,0,0,0-.12-.33.45.45,0,0,0-.33-.12.76.76,0,0,0-.29.05.54.54,0,0,0-.21.15.63.63,0,0,0-.12.22.88.88,0,0,0,0,.28v1.26h-.37V70.21Z"/><path class="cls-7" d="M58.86,73.08a1,1,0,0,1-.79.27,1.52,1.52,0,0,1-.32,0,1,1,0,0,1-.29-.11.69.69,0,0,1-.22-.2.58.58,0,0,1-.1-.31h.37a.27.27,0,0,0,.06.17.45.45,0,0,0,.14.11l.18.06.19,0A.68.68,0,0,0,58.4,73a.58.58,0,0,0,.21-.17.73.73,0,0,0,.12-.27,1.49,1.49,0,0,0,0-.34v-.15h0a.63.63,0,0,1-.29.31.9.9,0,0,1-.41.1,1,1,0,0,1-.44-.09.91.91,0,0,1-.31-.24,1,1,0,0,1-.19-.36,1.44,1.44,0,0,1-.06-.44,1.7,1.7,0,0,1,.05-.41,1.11,1.11,0,0,1,.17-.38,1,1,0,0,1,.32-.28,1,1,0,0,1,.49-.11.83.83,0,0,1,.39.09.65.65,0,0,1,.28.28h0v-.32h.35v2A1.19,1.19,0,0,1,58.86,73.08Zm-.47-1a.61.61,0,0,0,.21-.2.9.9,0,0,0,.11-.28,1.35,1.35,0,0,0,0-.31,1.28,1.28,0,0,0,0-.29.84.84,0,0,0-.11-.26.57.57,0,0,0-.2-.18.59.59,0,0,0-.29-.07.65.65,0,0,0-.3.07.58.58,0,0,0-.2.18.75.75,0,0,0-.12.26,1.22,1.22,0,0,0,0,.31,1.52,1.52,0,0,0,0,.3.81.81,0,0,0,.1.28.59.59,0,0,0,.2.2.56.56,0,0,0,.3.08A.6.6,0,0,0,58.38,72.08Z"/><path class="cls-7" d="M62.11,70.21v.3h0a.55.55,0,0,1,.29-.27,1.06,1.06,0,0,1,.43-.08,1,1,0,0,1,.45.1.91.91,0,0,1,.32.26,1.14,1.14,0,0,1,.19.37,1.6,1.6,0,0,1,0,.9,1,1,0,0,1-.19.37.89.89,0,0,1-.32.25,1,1,0,0,1-.45.09l-.19,0-.2-.06a.75.75,0,0,1-.19-.11.57.57,0,0,1-.15-.17h0v1.15h-.37V70.21Zm1.32.79a.85.85,0,0,0-.13-.27.6.6,0,0,0-.22-.19.66.66,0,0,0-.31-.07.61.61,0,0,0-.53.27.81.81,0,0,0-.12.27,1.3,1.3,0,0,0,0,.63.79.79,0,0,0,.12.27.63.63,0,0,0,.22.19.68.68,0,0,0,.33.07.63.63,0,0,0,.32-.07.58.58,0,0,0,.21-.19.84.84,0,0,0,.11-.28,1.48,1.48,0,0,0,0-.32A1.21,1.21,0,0,0,63.43,71Z"/><path class="cls-7" d="M65.12,69.36v3.09h-.37V69.36Z"/><path class="cls-7" d="M67.84,72.5a.32.32,0,0,1-.23-.08.35.35,0,0,1-.08-.26.88.88,0,0,1-.35.26,1.18,1.18,0,0,1-.44.08,1.22,1.22,0,0,1-.28,0,.63.63,0,0,1-.24-.11.52.52,0,0,1-.16-.19.76.76,0,0,1,0-.6.56.56,0,0,1,.17-.2.77.77,0,0,1,.24-.11l.28-.07.29,0,.24,0a.39.39,0,0,0,.17-.08.2.2,0,0,0,.06-.16.36.36,0,0,0,0-.19.31.31,0,0,0-.12-.11.46.46,0,0,0-.16-.05H67a.78.78,0,0,0-.39.09.38.38,0,0,0-.17.34h-.37a.8.8,0,0,1,.09-.35.66.66,0,0,1,.21-.23.86.86,0,0,1,.3-.13,1.54,1.54,0,0,1,.35,0l.3,0a.78.78,0,0,1,.27.09.52.52,0,0,1,.19.19.6.6,0,0,1,.07.32v1.15a.86.86,0,0,0,0,.19s0,.06.1.06l.11,0v.29A.53.53,0,0,1,67.84,72.5Zm-.52-1.13-.23,0-.25,0a.91.91,0,0,0-.23.06.41.41,0,0,0-.16.12.34.34,0,0,0-.06.22.29.29,0,0,0,0,.15.3.3,0,0,0,.09.1.39.39,0,0,0,.14.06l.16,0a.88.88,0,0,0,.31,0,.64.64,0,0,0,.21-.13.48.48,0,0,0,.12-.16.41.41,0,0,0,0-.17V71.3A.47.47,0,0,1,67.33,71.37Z"/><path class="cls-7" d="M69.84,70.21v.32h-.45v1.39a.39.39,0,0,0,0,.1.11.11,0,0,0,0,.06l.08,0h.31v.32h-.28l-.24,0a.37.37,0,0,1-.17-.07.31.31,0,0,1-.09-.15A.86.86,0,0,1,69,72V70.54h-.38v-.32H69v-.67h.37v.67Z"/><path class="cls-7" d="M70.45,70.54v-.32h.38v-.33a.52.52,0,0,1,.16-.41.68.68,0,0,1,.46-.14h.12l.12,0v.32l-.1,0h-.1a.36.36,0,0,0-.21.05.23.23,0,0,0-.07.2v.31h.43v.32H71.2v1.91h-.37V70.54Z"/><path class="cls-7" d="M72.34,70.87a1.06,1.06,0,0,1,.21-.37,1,1,0,0,1,.34-.25,1.25,1.25,0,0,1,.94,0,1,1,0,0,1,.34.25,1,1,0,0,1,.21.37,1.49,1.49,0,0,1,.07.46,1.46,1.46,0,0,1-.07.46,1,1,0,0,1-.21.37,1,1,0,0,1-.34.25,1.29,1.29,0,0,1-.94,0,1,1,0,0,1-.34-.25,1.07,1.07,0,0,1-.21-.37,1.48,1.48,0,0,1-.07-.46A1.5,1.5,0,0,1,72.34,70.87Zm.37.82a.74.74,0,0,0,.15.26.66.66,0,0,0,.22.16.65.65,0,0,0,.27.06.66.66,0,0,0,.49-.22A.74.74,0,0,0,74,71.7,1.25,1.25,0,0,0,74,71a.76.76,0,0,0-.15-.27.65.65,0,0,0-.22-.16.67.67,0,0,0-.27-.06.66.66,0,0,0-.27.06.65.65,0,0,0-.22.16.76.76,0,0,0-.15.27,1.24,1.24,0,0,0,0,.72Z"/><path class="cls-7" d="M75.65,70.21v.47h0a1,1,0,0,1,.33-.4.83.83,0,0,1,.49-.12v.39a1,1,0,0,0-.38.06.59.59,0,0,0-.25.18.74.74,0,0,0-.14.28,1.53,1.53,0,0,0,0,.38v1H75.3V70.21Z"/><path class="cls-7" d="M77.53,70.21v.33h0a.87.87,0,0,1,1.1-.29.48.48,0,0,1,.24.29.79.79,0,0,1,.3-.28.83.83,0,0,1,.41-.1,1.18,1.18,0,0,1,.31,0,.64.64,0,0,1,.23.11.52.52,0,0,1,.15.2.72.72,0,0,1,.05.3v1.64H80V71a1.07,1.07,0,0,0,0-.19.39.39,0,0,0-.07-.16.31.31,0,0,0-.13-.11.52.52,0,0,0-.22,0,.58.58,0,0,0-.43.16.56.56,0,0,0-.16.42v1.39h-.37V71a1,1,0,0,0,0-.2.44.44,0,0,0-.07-.16.32.32,0,0,0-.13-.1.5.5,0,0,0-.21,0,.55.55,0,0,0-.28.07.62.62,0,0,0-.19.16.6.6,0,0,0-.1.19.54.54,0,0,0,0,.16v1.39h-.37V70.21Z"/><path class="cls-8" d="M7.79,64.68a8,8,0,0,1-3.15-.6,7.28,7.28,0,0,1-2.46-1.66A7.63,7.63,0,0,1,.58,59.93a8.6,8.6,0,0,1,0-6.21,7.65,7.65,0,0,1,1.61-2.49,7.31,7.31,0,0,1,2.46-1.66A8,8,0,0,1,7.79,49a8.06,8.06,0,0,1,3.15.6,7.34,7.34,0,0,1,2.46,1.66A7.68,7.68,0,0,1,15,53.73a8.58,8.58,0,0,1,0,6.21,7.66,7.66,0,0,1-1.6,2.49,7.3,7.3,0,0,1-2.46,1.66A8.06,8.06,0,0,1,7.79,64.68Zm0-1.9A5.44,5.44,0,0,0,11.89,61,5.65,5.65,0,0,0,13,59.14a6.89,6.89,0,0,0,0-4.62,5.65,5.65,0,0,0-1.14-1.89,5.44,5.44,0,0,0-4.1-1.75,5.44,5.44,0,0,0-4.1,1.75,5.63,5.63,0,0,0-1.14,1.89,6.87,6.87,0,0,0,0,4.62A5.63,5.63,0,0,0,3.69,61a5.44,5.44,0,0,0,4.1,1.75Z"/><path class="cls-8" d="M18.5,49.35h5.26a4.94,4.94,0,0,1,4.79,4.85A4.82,4.82,0,0,1,23.75,59H20.52v5.27h-2Zm2,7.9h2.66a3.07,3.07,0,1,0,0-6.13H20.52Z"/><path class="cls-8" d="M31,49.35h2v15H31Z"/><path class="cls-8" d="M49.62,55.88v7.43a6.78,6.78,0,0,1-1.24.59,13.39,13.39,0,0,1-1.45.43,12.28,12.28,0,0,1-1.52.26,13.32,13.32,0,0,1-1.45.08,8.56,8.56,0,0,1-3.39-.63,7.45,7.45,0,0,1-2.51-1.71,7.37,7.37,0,0,1-1.56-2.5,8.43,8.43,0,0,1-.54-3,8.21,8.21,0,0,1,.58-3.1,7.66,7.66,0,0,1,1.61-2.49,7.31,7.31,0,0,1,2.46-1.66,8.05,8.05,0,0,1,3.15-.6,9.32,9.32,0,0,1,3.38.52,6.23,6.23,0,0,1,2.2,1.43l-1.44,1.54a5.3,5.3,0,0,0-2-1.23,6.76,6.76,0,0,0-2.17-.35,5.44,5.44,0,0,0-4.1,1.75,5.61,5.61,0,0,0-1.14,1.89,6.62,6.62,0,0,0-.4,2.31,6.21,6.21,0,0,0,.44,2.35,5.86,5.86,0,0,0,1.23,1.89,5.64,5.64,0,0,0,1.84,1.26,5.75,5.75,0,0,0,2.3.45,9.92,9.92,0,0,0,2-.2A5.69,5.69,0,0,0,47.59,62V57.78h-.71v-1.9Z"/><path class="cls-8" d="M77,64.68a8.06,8.06,0,0,1-3.15-.6,7.29,7.29,0,0,1-2.46-1.66,7.61,7.61,0,0,1-1.6-2.49,8.59,8.59,0,0,1,0-6.21,7.63,7.63,0,0,1,1.6-2.49,7.32,7.32,0,0,1,2.46-1.66,8.53,8.53,0,0,1,6.29,0,7.36,7.36,0,0,1,2.46,1.66,7.69,7.69,0,0,1,1.6,2.49,8.58,8.58,0,0,1,0,6.21,7.67,7.67,0,0,1-1.6,2.49,7.32,7.32,0,0,1-2.46,1.66A8.05,8.05,0,0,1,77,64.68Zm0-1.9A5.44,5.44,0,0,0,81.08,61a5.64,5.64,0,0,0,1.14-1.89,6.87,6.87,0,0,0,0-4.62,5.65,5.65,0,0,0-1.14-1.89,5.6,5.6,0,0,0-8.19,0,5.61,5.61,0,0,0-1.14,1.89,6.85,6.85,0,0,0,0,4.62A5.6,5.6,0,0,0,72.89,61,5.44,5.44,0,0,0,77,62.78Z"/><path class="cls-9" d="M83.38,46.42h.52l.7,1.93.72-1.93h.49l-1,2.55h-.39Z"/><path class="cls-9" d="M86.19,48.52l1-1,.09-.09.09-.1.06-.11a.34.34,0,0,0,0-.12.3.3,0,0,0,0-.14.33.33,0,0,0-.08-.1l-.12-.07-.14,0a.39.39,0,0,0-.27.09.4.4,0,0,0-.13.25l-.45,0a.81.81,0,0,1,.08-.31.7.7,0,0,1,.18-.23.78.78,0,0,1,.26-.14,1,1,0,0,1,.32,0,1.11,1.11,0,0,1,.32,0,.76.76,0,0,1,.26.13.61.61,0,0,1,.18.23.73.73,0,0,1,.07.32.77.77,0,0,1-.11.42,1.64,1.64,0,0,1-.28.33l-.79.73H87.9V49H86.19Z"/><path class="cls-8" d="M65.92,55.78a6.16,6.16,0,0,0-.51-2.48,6.53,6.53,0,0,0-1.37-2,6.62,6.62,0,0,0-2-1.38,6.09,6.09,0,0,0-2.41-.51h-.06a6.09,6.09,0,0,0-2.41.51,6.62,6.62,0,0,0-2,1.38,6.54,6.54,0,0,0-1.37,2,6.16,6.16,0,0,0-.51,2.48l0,8.5h2l0-8.5a4.27,4.27,0,0,1,.34-1.7,4.36,4.36,0,0,1,2.32-2.32,4.16,4.16,0,0,1,3.29,0,4.37,4.37,0,0,1,2.32,2.32,4.3,4.3,0,0,1,.34,1.7l0,8.5h2Z"/></g></g></g></svg>