<svg xmlns="http://www.w3.org/2000/svg" xmlns:xlink="http://www.w3.org/1999/xlink" viewBox="0 0 113.78 113.78"><defs><style>.cls-1{isolation:isolate;}.cls-2{fill:url(#linear-gradient);}.cls-3{fill:url(#linear-gradient-2);}.cls-4{fill:url(#linear-gradient-3);}.cls-5{fill:#fff;opacity:0.2;mix-blend-mode:overlay;}</style><linearGradient id="linear-gradient" x1="7.83" y1="40.87" x2="75.54" y2="79.96" gradientUnits="userSpaceOnUse"><stop offset="0" stop-color="#1f3b71"/><stop offset="0.1" stop-color="#204177"/><stop offset="0.23" stop-color="#245289"/><stop offset="0.38" stop-color="#2a6ea5"/><stop offset="0.54" stop-color="#3295cd"/><stop offset="0.62" stop-color="#36a9e1"/><stop offset="0.74" stop-color="#2688be"/><stop offset="0.82" stop-color="#236ca2"/><stop offset="0.94" stop-color="#20497f"/><stop offset="1" stop-color="#1f3b71"/></linearGradient><linearGradient id="linear-gradient-2" x1="4.3" y1="80.06" x2="102.2" y2="23.54" gradientUnits="userSpaceOnUse"><stop offset="0" stop-color="#36a9e1"/><stop offset="0.01" stop-color="#36a9e1"/><stop offset="0.28" stop-color="#36a9e1"/><stop offset="0.67" stop-color="#1f3b71"/><stop offset="0.89" stop-color="#1f3b71"/><stop offset="1" stop-color="#1f3b71"/></linearGradient><linearGradient id="linear-gradient-3" x1="20.53" y1="56.89" x2="113.78" y2="56.89" gradientUnits="userSpaceOnUse"><stop offset="0" stop-color="#1f3b71"/><stop offset="0.25" stop-color="#1f3b71"/><stop offset="0.34" stop-color="#23467c"/><stop offset="0.5" stop-color="#2d6498"/><stop offset="0.71" stop-color="#3d95c5"/><stop offset="0.89" stop-color="#4cc2ef"/><stop offset="1" stop-color="#3cb3e7"/></linearGradient></defs><title>logo-footer</title><g class="cls-1"><g id="Layer_2" data-name="Layer 2"><g id="Calque_1" data-name="Calque 1"><path class="cls-2" d="M37.63,55.27C37.07,42.72,49.41,24.49,57.42,15.9a48.09,48.09,0,1,0-7.09,95.66c13.89,0,15.5-23.17,24.28-32.58C61.39,85.54,38.69,78.63,37.63,55.27Z"/><path class="cls-3" d="M49.56,48.3C70,48.3,91.63,70.15,83.75,92.48,88.61,84.1,113.06,68,113.06,57.61A56.89,56.89,0,0,0,56.17.72,55.67,55.67,0,0,0,0,56.89,60.48,60.48,0,0,0,10.66,90.66C8.11,68.87,24.12,48.3,49.56,48.3Z"/><path class="cls-4" d="M56.89,0A56.66,56.66,0,0,0,20.53,13.14C48.6-1,75.25,33,75.25,59.56S59.66,107.66,33.1,107.66c-.66,0-1.32,0-2-.05A56.89,56.89,0,1,0,56.89,0Z"/><path class="cls-5" d="M11.44,22.44c14.47,30.29,17.6,60.48,9.3,78.94C14.92,97.41,0,81.35,0,56.61,0,38.25,9.32,25.49,11.44,22.44Z"/></g></g></g></svg>