<svg xmlns="http://www.w3.org/2000/svg" viewBox="0 0 34.02 36.17"><defs><style>.cls-1{fill:#c7c7c7;}</style></defs><title>picto-calendar</title><g id="Layer_2" data-name="Layer 2"><g id="Calque_1" data-name="Calque 1"><path class="cls-1" d="M23.52,7.07a1.74,1.74,0,0,0,1.73-1.8V2A1.77,1.77,0,0,0,23.52.13,1.75,1.75,0,0,0,21.81,2V5.26A1.72,1.72,0,0,0,23.52,7.07Z"/><path class="cls-1" d="M9.43,7.22a1.84,1.84,0,0,0,1.78-1.93V1.91a1.78,1.78,0,1,0-3.56,0V5.29A1.83,1.83,0,0,0,9.43,7.22Z"/><path class="cls-1" d="M32.06,2.57H27.31v2.7A3.93,3.93,0,0,1,23.52,9.2,4.05,4.05,0,0,1,19.7,5.26V2.57H13.27V5.29A4,4,0,0,1,9.4,9.36,4,4,0,0,1,5.54,5.29V2.57H2a1.85,1.85,0,0,0-.41,0A2,2,0,0,0,0,4.58V34.17a2,2,0,0,0,2,2h30.1a2,2,0,0,0,2-2V4.58C34,3.47,33.1,2.88,32.06,2.57Zm-1.27,30.3H3.23V12.74H30.79Z"/><path class="cls-1" d="M12,16.87c-2.49,0-4.14,1.5-4.14,3.59v.23h2.51v-.23a1.19,1.19,0,0,1,.53-1,2.22,2.22,0,0,1,1.27-.38,1.68,1.68,0,0,1,1.7,1.68c0,1-.33,1.44-1.91,1.63H10.8v2.06h1.3a2,2,0,0,1,1.42.51A1.78,1.78,0,0,1,14,26.31a1.58,1.58,0,0,1-.59,1.25,2.28,2.28,0,0,1-1.27.56,2.31,2.31,0,0,1-1.32-.46,1.4,1.4,0,0,1-.69-1H7.73a3.45,3.45,0,0,0,1.22,2.59,5,5,0,0,0,3.25,1,4.31,4.31,0,0,0,3.15-1.17,4,4,0,0,0,1.15-2.87A3.16,3.16,0,0,0,15,23.51a.13.13,0,0,1,0-.25,2,2,0,0,0,1-1,4.1,4.1,0,0,0,.3-2.09C16.19,18.35,14.7,16.87,12,16.87Z"/><path class="cls-1" d="M25.22,18a4,4,0,0,0-2.92-1.12c-.16,0-.3,0-.46,0A4,4,0,0,0,19.27,18a4.13,4.13,0,0,0-1.07,2.93v5.41a4,4,0,0,0,1.12,2.95,4.15,4.15,0,0,0,2.95,1.07,4,4,0,0,0,3-1.12,4.07,4.07,0,0,0,1-2.9V20.92A4.11,4.11,0,0,0,25.22,18Zm-1.55,8.44a1.31,1.31,0,0,1-.43,1,1.49,1.49,0,0,1-2,0,1.32,1.32,0,0,1-.46-1V20.81a1.48,1.48,0,0,1,.48-1.12,1.57,1.57,0,0,1,1-.38,1.46,1.46,0,0,1,.94.38,1.49,1.49,0,0,1,.48,1.12Z"/></g></g></svg>