<svg xmlns="http://www.w3.org/2000/svg" viewBox="0 0 36.85 29.8"><defs><style>.cls-1{fill:#c7c7c7;}</style></defs><title>picto-administration</title><g id="Layer_2" data-name="Layer 2"><g id="Calque_1" data-name="Calque 1"><path class="cls-1" d="M22.48,9.8a2.78,2.78,0,0,0-.54.05,9.67,9.67,0,0,0-1-2.25,2.83,2.83,0,1,0-4.15-3.79,9.05,9.05,0,0,0-1.44-.57,2.42,2.42,0,0,0,0-.41,2.84,2.84,0,1,0-5.69,0,3,3,0,0,0,0,.41A10.08,10.08,0,0,0,8,4,2.84,2.84,0,1,0,4,7.93a9.93,9.93,0,0,0-.79,1.9,3.06,3.06,0,0,0-.32,0,2.84,2.84,0,0,0,0,5.69,2.46,2.46,0,0,0,.32,0,9.6,9.6,0,0,0,.7,1.72,2.81,2.81,0,0,0-1,2.16,2.83,2.83,0,0,0,5,1.89A10.17,10.17,0,0,0,9.74,22a3.07,3.07,0,0,0,0,.41,2.84,2.84,0,0,0,5.69,0,2.45,2.45,0,0,0,0-.41,9.67,9.67,0,0,0,1.73-.7,2.84,2.84,0,0,0,4.06-4,10,10,0,0,0,.8-1.93,2.87,2.87,0,0,0,.54.05,2.84,2.84,0,1,0,0-5.69Zm-9.82,7.47a4.63,4.63,0,1,1,4.63-4.63A4.63,4.63,0,0,1,12.66,17.28Z"/><path class="cls-1" d="M35.58,23.7a1.52,1.52,0,1,0-.52-3,1.33,1.33,0,0,0-.28.08,5.09,5.09,0,0,0-.73-1.1,1.5,1.5,0,0,0,.34-1.22,1.52,1.52,0,0,0-2.87-.4,4.79,4.79,0,0,0-.81-.17c0-.07,0-.15,0-.22a1.52,1.52,0,0,0-3,.52,1.27,1.27,0,0,0,.06.21,5.25,5.25,0,0,0-.88.55,1.52,1.52,0,1,0-1.75,2.44,5.58,5.58,0,0,0-.25,1.08h-.17a1.52,1.52,0,1,0,.52,3l.16,0a5.25,5.25,0,0,0,.53.84,1.52,1.52,0,0,0,1.42,2.47,1.52,1.52,0,0,0,1-.7,5.45,5.45,0,0,0,1.1.26,1.24,1.24,0,0,0,0,.22,1.52,1.52,0,1,0,3-.52c0-.07,0-.14-.06-.21a5.24,5.24,0,0,0,.85-.53,1.52,1.52,0,0,0,1.79-2.47,5.17,5.17,0,0,0,.24-1.08A1.46,1.46,0,0,0,35.58,23.7Zm-5,1.84a2.48,2.48,0,1,1,2-2.86A2.48,2.48,0,0,1,30.57,25.54Z"/></g></g></svg>