<svg xmlns="http://www.w3.org/2000/svg" viewBox="0 0 36.85 37.72"><defs><style>.cls-1{fill:#f7f6f6;}.cls-2{fill:#c7c7c7;}</style></defs><title>picto-catalogue</title><g id="Layer_2" data-name="Layer 2"><g id="Calque_1" data-name="Calque 1"><path class="cls-1" d="M17.71,1.15H29.89A5.8,5.8,0,0,1,35.7,7V22.25a5.8,5.8,0,0,1-5.8,5.8H17.7a5.8,5.8,0,0,1-5.8-5.8V7A5.81,5.81,0,0,1,17.71,1.15Z"/><path class="cls-2" d="M29.89,29.2H17.71a7,7,0,0,1-7-7V7a7,7,0,0,1,7-7H29.89a7,7,0,0,1,7,7V22.24A7,7,0,0,1,29.89,29.2ZM17.71,2.31A4.65,4.65,0,0,0,13.06,7V22.24a4.66,4.66,0,0,0,4.65,4.65H29.89a4.66,4.66,0,0,0,4.65-4.65V7a4.66,4.66,0,0,0-4.65-4.65Z"/><rect class="cls-1" x="6.53" y="5.42" width="23.79" height="26.89" rx="5.8" ry="5.8"/><path class="cls-2" d="M24.52,33.46H12.33a7,7,0,0,1-7-7V11.22a7,7,0,0,1,7-7H24.52a7,7,0,0,1,7,7V26.51A7,7,0,0,1,24.52,33.46ZM12.33,6.57a4.66,4.66,0,0,0-4.65,4.65V26.51a4.65,4.65,0,0,0,4.65,4.65H24.52a4.65,4.65,0,0,0,4.65-4.65V11.22a4.66,4.66,0,0,0-4.65-4.65Z"/><rect class="cls-1" x="1.15" y="9.68" width="23.79" height="26.89" rx="5.8" ry="5.8"/><path class="cls-2" d="M19.15,37.72H7a7,7,0,0,1-7-7V15.48a7,7,0,0,1,7-7H19.15a7,7,0,0,1,7,7V30.77A7,7,0,0,1,19.15,37.72ZM7,10.83A4.66,4.66,0,0,0,2.3,15.48V30.77A4.66,4.66,0,0,0,7,35.42H19.15a4.66,4.66,0,0,0,4.65-4.65V15.48a4.66,4.66,0,0,0-4.65-4.65Z"/></g></g></svg>