<svg xmlns="http://www.w3.org/2000/svg" viewBox="0 0 26.74 25.07"><defs><style>.cls-1{fill:#dadada;}</style></defs><title>picto-logout-hover</title><g id="Layer_2" data-name="Layer 2"><g id="Calque_1" data-name="Calque 1"><path class="cls-1" d="M6,23.4H1.67V1.67H6A.84.84,0,0,0,6,0H.83A.84.84,0,0,0,0,.84v23.4a.84.84,0,0,0,.83.84H6A.84.84,0,0,0,6,23.4Z"/><path class="cls-1" d="M26.68,12.89a.83.83,0,0,0,0-.63.84.84,0,0,0-.1-.15.81.81,0,0,0-.07-.12L20,5.28a.84.84,0,1,0-1.2,1.16l5.12,5.3H6a.84.84,0,0,0,0,1.67h18l-5.12,5.3A.84.84,0,1,0,20,19.87l6.49-6.72a.88.88,0,0,0,.07-.11A.79.79,0,0,0,26.68,12.89Z"/></g></g></svg>