<svg xmlns="http://www.w3.org/2000/svg" viewBox="0 0 39.69 31.27"><defs><style>.cls-1{fill:#c7c7c7;}</style></defs><title>picto-collaborative</title><g id="Layer_2" data-name="Layer 2"><g id="Calque_1" data-name="Calque 1"><path class="cls-1" d="M35.91,16.47a3.57,3.57,0,1,1,3.57-3.57A3.58,3.58,0,0,1,35.91,16.47Zm0-5.42a1.84,1.84,0,1,0,1.84,1.84A1.85,1.85,0,0,0,35.91,11Z"/><path class="cls-1" d="M20.94,26.19a5.73,5.73,0,1,1,5.74-5.73A5.74,5.74,0,0,1,20.94,26.19Zm0-9.74a4,4,0,1,0,4,4A4,4,0,0,0,20.94,16.45Z"/><path class="cls-1" d="M36.11,31.27a3.57,3.57,0,0,1-2.83-5.75,3.55,3.55,0,0,1,2.37-1.37,3.58,3.58,0,0,1,.93,7.09A3.66,3.66,0,0,1,36.11,31.27Zm0-5.42-.24,0a1.84,1.84,0,0,0,.48,3.66,1.85,1.85,0,0,0-.24-3.68Z"/><path class="cls-1" d="M33.64,27.47a.86.86,0,0,1-.36-.08L25,23.56A.86.86,0,0,1,25.7,22L34,25.82a.87.87,0,0,1-.36,1.65Z"/><path class="cls-1" d="M25.81,19.83a.87.87,0,0,1-.43-1.61l7.82-4.53a.86.86,0,1,1,.86,1.5l-7.81,4.53A.86.86,0,0,1,25.81,19.83Z"/><path class="cls-1" d="M18.48,7.14h0a3.58,3.58,0,0,1-3.31-4.93A3.63,3.63,0,0,1,19.84.26a3.57,3.57,0,0,1-1.36,6.88Zm0-5.42a1.85,1.85,0,0,0-.7,3.55,1.88,1.88,0,0,0,2.41-1,1.85,1.85,0,0,0-1.71-2.55Z"/><path class="cls-1" d="M20.26,16.08a.86.86,0,0,1-.86-.75l-1.23-9a.86.86,0,0,1,.74-1,.85.85,0,0,1,1,.74l1.23,9a.86.86,0,0,1-.74,1Z"/><path class="cls-1" d="M9.73,11.6h0a3.57,3.57,0,1,1,.48,0A3.94,3.94,0,0,1,9.73,11.6Zm0-5.42-.25,0a1.85,1.85,0,1,0,.25,0Z"/><path class="cls-1" d="M17.1,18.07a.86.86,0,0,1-.68-.33l-5.55-7.13a.87.87,0,0,1,1.36-1.06l5.55,7.13a.87.87,0,0,1-.15,1.21A.84.84,0,0,1,17.1,18.07Z"/><path class="cls-1" d="M3.57,25.55h0A3.51,3.51,0,0,1,2,25.18a3.58,3.58,0,0,1-1.6-4.79,3.63,3.63,0,0,1,4.8-1.6,3.58,3.58,0,0,1-1.6,6.77Zm0-5.42a1.85,1.85,0,0,0-.83,3.5,1.89,1.89,0,0,0,2.48-.83,1.85,1.85,0,0,0-1.65-2.67Z"/><path class="cls-1" d="M6.3,22.48a.86.86,0,0,1-.05-1.73l9-.56a.87.87,0,1,1,.11,1.73l-9,.56Z"/><path class="cls-1" d="M28.31,8.89h0a3.58,3.58,0,0,1-2-6.54,3.67,3.67,0,0,1,5,1,3.58,3.58,0,0,1-3,5.58Zm0-5.42a1.82,1.82,0,0,0-1,.32,1.85,1.85,0,0,0,1,3.37h0a1.85,1.85,0,1,0,0-3.69Z"/><path class="cls-1" d="M23.36,16.87a.89.89,0,0,1-.38-.09.87.87,0,0,1-.4-1.16L26.5,7.49a.87.87,0,0,1,1.56.75l-3.93,8.14A.87.87,0,0,1,23.36,16.87Z"/></g></g></svg>