<svg xmlns="http://www.w3.org/2000/svg" viewBox="0 0 39.68 28.96"><defs><style>.cls-1{fill:#c7c7c7;}</style></defs><title>picto-trainings</title><g id="Layer_2" data-name="Layer 2"><g id="Calque_1" data-name="Calque 1"><path class="cls-1" d="M15.24,2,8.47,0A1,1,0,0,0,7.3.68L0,25.8A1,1,0,0,0,.68,27l6.76,2a.94.94,0,0,0,1.17-.64L15.87,3.16A.94.94,0,0,0,15.24,2ZM12.87,9.22l0,.12a.62.62,0,0,1-.81.31L7.09,8.22c-.36-.11-.6-.41-.52-.68l0-.13a.62.62,0,0,1,.8-.3l4.95,1.43C12.72,8.64,13,8.95,12.87,9.22ZM13.52,7l0,.13a.62.62,0,0,1-.81.3L7.74,6a.62.62,0,0,1-.52-.69l0-.12a.63.63,0,0,1,.81-.31L13,6.29A.63.63,0,0,1,13.52,7Z"/><path class="cls-1" d="M19.17.93h-.34a.69.69,0,0,0-.69.69V28.27a.69.69,0,0,0,.69.69h.34a.69.69,0,0,0,.69-.69V1.62A.69.69,0,0,0,19.17.93Z"/><path class="cls-1" d="M27.11.93h-.35a.69.69,0,0,0-.69.69V28.27a.69.69,0,0,0,.69.69h.35a.69.69,0,0,0,.69-.69V1.62A.69.69,0,0,0,27.11.93Z"/><path class="cls-1" d="M21.73.93h-.18c-.19,0-.36.31-.36.69V28.27c0,.38.16.69.36.69h.18c.19,0,.36-.31.36-.69V1.62C22.09,1.24,21.93.93,21.73.93Z"/><path class="cls-1" d="M24.3.93h-.18c-.19,0-.35.31-.35.69V28.27c0,.38.16.69.35.69h.18c.2,0,.35-.31.35-.69V1.62C24.65,1.24,24.49.93,24.3.93Z"/><path class="cls-1" d="M39.67,1.82a.94.94,0,0,0-.94-.94h-7a.94.94,0,0,0-.94.95V28a.94.94,0,0,0,.94.94h7a.94.94,0,0,0,.94-.94ZM31.95,6.14c0-.29.31-.52.69-.52h5.14c.39,0,.69.23.69.52v.13c0,.28-.31.52-.69.52H32.64c-.38,0-.69-.23-.69-.52Zm5.84,3H32.64c-.38,0-.69-.23-.69-.52V8.47A.62.62,0,0,1,32.64,8h5.14c.38,0,.69.23.69.52V8.6C38.48,8.89,38.17,9.12,37.79,9.12Z"/></g></g></svg>