<svg xmlns="http://www.w3.org/2000/svg" xmlns:xlink="http://www.w3.org/1999/xlink" viewBox="0 0 37.04 41.77"><defs><style>.cls-1{fill:none;clip-rule:evenodd;}.cls-2{fill:#f7f6f6;}.cls-3{fill:#c7c7c7;}.cls-4{clip-path:url(#clip-path);}.cls-5{clip-path:url(#clip-path-2);}</style><clipPath id="clip-path"><path class="cls-1" d="M19.93,37.82A3.07,3.07,0,0,1,23,34.75H33.09a3.07,3.07,0,0,1,3.07,3.07v3.07H19.93Z"/></clipPath><clipPath id="clip-path-2"><path class="cls-1" d="M.88,37.82a3.07,3.07,0,0,1,3.07-3.07H14a3.07,3.07,0,0,1,3.07,3.07v3.07H.88Z"/></clipPath></defs><title>picto-forum</title><g id="Layer_2" data-name="Layer 2"><g id="Calque_1" data-name="Calque 1"><ellipse class="cls-2" cx="18.52" cy="25.75" rx="6.36" ry="6.54"/><path class="cls-3" d="M20.46,38.19H16.81a.38.38,0,0,1-.37-.27l-.37-1.23-1-1.12-1.94,0-2.74,0a.41.41,0,0,1-.32-.16A.39.39,0,0,1,10,35l.63-1.62a.38.38,0,0,1,.15-.18l1.25-.82a.38.38,0,0,1,.2-.06l5.51-.19h4.69l2.19.4a.39.39,0,0,1,.22.13l.86,1a.39.39,0,0,1,.08.18l.26,1.46c0,.12-.14-.06-.22,0a.39.39,0,0,1-.32.12l-1.87-.11-1.27.11-.78.45-1,1C20.57,37.09,20.62,38.19,20.46,38.19Zm-3.36-.78h3.11L21,36.25a.39.39,0,0,1,.29-.23l2.32-1.15h.1l1.52.14-.16-.86L23.69,33l-1.3,0H17.79l-5.39.19-1.06.69-.38,1,2.22,0,2,.47a.38.38,0,0,1,.22.11l1.12.91a.36.36,0,0,1,.1.17Z"/><path class="cls-3" d="M25.31,25.75a6.89,6.89,0,0,0-6.79-7,6.59,6.59,0,0,0-2.44.47h-.13l-.1.08a7,7,0,0,0-4.05,5.5.43.43,0,0,0,0,.38c0,.18,0,.35,0,.53a7,7,0,0,0,4,6.33h0a.44.44,0,0,0-.35.7l2.63,3.51a.44.44,0,0,0,.7,0l2.63-3.51a.42.42,0,0,0-.1-.61A7,7,0,0,0,25.31,25.75Zm-7,9.54L16.55,33h3.51Zm.22-3.44a6,6,0,0,1-5.92-6.1c0-.17,0-.34,0-.5A3.39,3.39,0,0,1,16,24.81c2,.73,5.41-.54,7.23-1.22l.76-.28a6.22,6.22,0,0,1,.49,2.43A6,6,0,0,1,18.52,31.85Z"/><ellipse class="cls-2" cx="28.49" cy="28.43" rx="6.36" ry="6.54"/><path class="cls-3" d="M35.28,28.43a7.08,7.08,0,0,0-.68-3l0-.08a6.78,6.78,0,0,0-6.08-3.87,6.6,6.6,0,0,0-2.44.47h-.13l-.11.08a7,7,0,0,0-.16,12.73h0a.44.44,0,0,0-.35.7L27.92,39a.44.44,0,0,0,.7,0l2.63-3.51a.42.42,0,0,0-.1-.62A7,7,0,0,0,35.28,28.43Zm-7,9.54-1.75-2.34H30Zm.22-3.44a6,6,0,0,1-5.93-6.1c0-.11,0-.22,0-.33l.08-.05a3.37,3.37,0,0,1,3.49-.56c2,.73,5.41-.54,7.23-1.22l.57-.21a6.25,6.25,0,0,1,.46,2.36A6,6,0,0,1,28.49,34.53Z"/><path class="cls-3" d="M10.44,19.35a2.73,2.73,0,0,1-.55-.06.43.43,0,0,1-.26-.69,3.4,3.4,0,0,0,.8-2,.45.45,0,0,0-.23-.33A8.54,8.54,0,0,1,5.94,9.15c0-5,5.12-9.15,11.41-9.15S28.75,4.11,28.75,9.15a.43.43,0,0,1-.87,0c0-4.57-4.73-8.29-10.54-8.29S6.81,4.59,6.81,9.15a7.67,7.67,0,0,0,3.86,6.41,1.33,1.33,0,0,1,.62.91,3.22,3.22,0,0,1-.52,2,3.23,3.23,0,0,0,1.44-.88c.42-.37.81-.72,1.29-.6a19.55,19.55,0,0,0,3.84.47,13.35,13.35,0,0,0,1.84-.13.43.43,0,1,1,.12.86,14.16,14.16,0,0,1-2,.13,20.27,20.27,0,0,1-4-.49,3.73,3.73,0,0,0-.51.41A3.56,3.56,0,0,1,10.44,19.35Z"/><path class="cls-3" d="M26.77,19.35a2.52,2.52,0,0,1-1.66-.79,2.81,2.81,0,0,0-.28-.23,13.88,13.88,0,0,1-2.67.32c-4.28,0-7.76-2.81-7.76-6.26s3.48-6.25,7.76-6.25S29.91,9,29.91,12.4A5.84,5.84,0,0,1,27,17.29a.16.16,0,0,0-.09.12,2.2,2.2,0,0,0,.51,1.21.44.44,0,0,1-.26.69A2,2,0,0,1,26.77,19.35Zm-1.92-1.89a1.34,1.34,0,0,1,.84.45,3.13,3.13,0,0,0,.57.43,1.91,1.91,0,0,1-.19-1.08,1,1,0,0,1,.48-.71A5,5,0,0,0,29,12.4C29,9.43,26,7,22.16,7s-6.89,2.42-6.89,5.38,3.09,5.39,6.89,5.39a12.92,12.92,0,0,0,2.53-.31Z"/><g class="cls-4"><path class="cls-3" d="M36.16,41.77H19.93a.88.88,0,0,1-.88-.88V37.82A4,4,0,0,1,23,33.88H33.09A4,4,0,0,1,37,37.82v3.07A.88.88,0,0,1,36.16,41.77ZM20.81,40H35.28V37.82a2.2,2.2,0,0,0-2.19-2.19H23a2.2,2.2,0,0,0-2.2,2.19Z"/></g><ellipse class="cls-2" cx="9.43" cy="28.43" rx="6.36" ry="6.54"/><g class="cls-5"><path class="cls-3" d="M17.11,41.77H.88A.88.88,0,0,1,0,40.89V37.82a4,4,0,0,1,3.95-3.95H14A4,4,0,0,1,18,37.82v3.07A.88.88,0,0,1,17.11,41.77ZM1.75,40H16.23V37.82A2.2,2.2,0,0,0,14,35.63H3.95a2.2,2.2,0,0,0-2.19,2.19Z"/></g><path class="cls-3" d="M16.22,28.43a6.89,6.89,0,0,0-6.79-7A6.59,6.59,0,0,0,7,21.93H6.86L6.75,22a7,7,0,0,0-4,5.49.43.43,0,0,0,0,.41c0,.17,0,.34,0,.51a7,7,0,0,0,4,6.33h0a.44.44,0,0,0-.35.7L8.86,39a.44.44,0,0,0,.7,0l2.63-3.51a.44.44,0,0,0,0-.46.43.43,0,0,0-.14-.16A7,7,0,0,0,16.22,28.43ZM9.21,38,7.46,35.63H11Zm.22-3.44a6,6,0,0,1-5.93-6.1c0-.17,0-.34,0-.51a3.39,3.39,0,0,1,3.34-.43c2,.73,5.41-.54,7.23-1.22l.75-.27a6.22,6.22,0,0,1,.5,2.43A6,6,0,0,1,9.43,34.53Z"/></g></g></svg>